<svg xmlns="http://www.w3.org/2000/svg" width="1024" height="1024" viewBox="0 0 1024 1024">
  <defs>
    <radialGradient id="bg" cx="50%" cy="38%" r="75%">
      <stop offset="0%" stop-color="#2a1010"/>
      <stop offset="60%" stop-color="#140505"/>
      <stop offset="100%" stop-color="#0a0a0a"/>
    </radialGradient>
    <linearGradient id="bodyGrad" x1="0%" y1="0%" x2="0%" y2="100%">
      <stop offset="0%" stop-color="#2a2a2a"/>
      <stop offset="100%" stop-color="#1a1a1a"/>
    </linearGradient>
    <linearGradient id="screenGrad" x1="0%" y1="0%" x2="0%" y2="100%">
      <stop offset="0%" stop-color="#1a1a1a"/>
      <stop offset="100%" stop-color="#050505"/>
    </linearGradient>
    <linearGradient id="strapGrad" x1="0%" y1="0%" x2="0%" y2="100%">
      <stop offset="0%" stop-color="#ef4444"/>
      <stop offset="100%" stop-color="#b91c1c"/>
    </linearGradient>
  </defs>


  <!-- Top strap -->
  <path d="M 360 130 Q 400 120 512 120 Q 624 120 664 130 L 660 250 L 364 250 Z" fill="url(#strapGrad)"/>
  <!-- Bottom strap -->
  <path d="M 364 774 L 660 774 L 664 894 Q 624 904 512 904 Q 400 904 360 894 Z" fill="url(#strapGrad)"/>

  <!-- Watch body -->
  <rect x="290" y="248" width="444" height="528" rx="96" ry="96" fill="url(#bodyGrad)" stroke="#3a3a3a" stroke-width="4"/>
  <rect x="318" y="276" width="388" height="472" rx="72" ry="72" fill="#0a0a0a"/>
  <rect x="334" y="292" width="356" height="440" rx="58" ry="58" fill="url(#screenGrad)"/>

  <!-- Digital crown -->
  <rect x="734" y="420" width="36" height="92" rx="16" ry="16" fill="#444444"/>
  <rect x="740" y="430" width="24" height="72" rx="12" ry="12" fill="#dc2626"/>
  <circle cx="752" cy="466" r="6" fill="#7f1d1d"/>
  <rect x="734" y="544" width="36" height="60" rx="10" ry="10" fill="#444444"/>

  <!-- Brand ">_" mark (upper portion of screen) -->
  <path d="M 400 360 L 500 432 L 400 504" fill="none" stroke="#dc2626" stroke-width="32" stroke-linecap="round" stroke-linejoin="round"/>
  <line x1="525" y1="504" x2="615" y2="504" stroke="#dc2626" stroke-width="32" stroke-linecap="round"/>

  <!-- Claude — official simple-icons SVG path, orange, bottom-left of screen -->
  <g transform="translate(396, 596) scale(3.67)" fill="#cc785c">
    <path d="m4.7144 15.9555 4.7174-2.6471.079-.2307-.079-.1275h-.2307l-.7893-.0486-2.6956-.0729-2.3375-.0971-2.2646-.1214-.5707-.1215-.5343-.7042.0546-.3522.4797-.3218.686.0608 1.5179.1032 2.2767.1578 1.6514.0972 2.4468.255h.3886l.0546-.1579-.1336-.0971-.1032-.0972L6.973 9.8356l-2.55-1.6879-1.3356-.9714-.7225-.4918-.3643-.4614-.1578-1.0078.6557-.7225.8803.0607.2246.0607.8925.686 1.9064 1.4754 2.4893 1.8336.3643.3035.1457-.1032.0182-.0728-.164-.2733-1.3539-2.4467-1.445-2.4893-.6435-1.032-.17-.6194c-.0607-.255-.1032-.4674-.1032-.7285L6.287.1335 6.6997 0l.9957.1336.419.3642.6192 1.4147 1.0018 2.2282 1.5543 3.0296.4553.8985.2429.8318.091.255h.1579v-.1457l.1275-1.706.2368-2.0947.2307-2.6957.0789-.7589.3764-.9107.7468-.4918.5828.2793.4797.686-.0668.4433-.2853 1.8517-.5586 2.9021-.3643 1.9429h.2125l.2429-.2429.9835-1.3053 1.6514-2.0643.7286-.8196.85-.9046.5464-.4311h1.0321l.759 1.1293-.34 1.1657-1.0625 1.3478-.8804 1.1414-1.2628 1.7-.7893 1.36.0729.1093.1882-.0183 2.8535-.607 1.5421-.2794 1.8396-.3157.8318.3886.091.3946-.3278.8075-1.967.4857-2.3072.4614-3.4364.8136-.0425.0304.0486.0607 1.5482.1457.6618.0364h1.621l3.0175.2247.7892.522.4736.6376-.079.4857-1.2142.6193-1.6393-.3886-3.825-.9107-1.3113-.3279h-.1822v.1093l1.0929 1.0686 2.0035 1.8092 2.5075 2.3314.1275.5768-.3218.4554-.34-.0486-2.2039-1.6575-.85-.7468-1.9246-1.621h-.1275v.17l.4432.6496 2.3436 3.5214.1214 1.0807-.17.3521-.6071.2125-.6679-.1214-1.3721-1.9246L14.38 17.959l-1.1414-1.9428-.1397.079-.674 7.2552-.3156.3703-.7286.2793-.6071-.4614-.3218-.7468.3218-1.4753.3886-1.9246.3157-1.53.2853-1.9004.17-.6314-.0121-.0425-.1397.0182-1.4328 1.9672-2.1796 2.9446-1.7243 1.8456-.4128.164-.7164-.3704.0667-.6618.4008-.5889 2.386-3.0357 1.4389-1.882.929-1.0868-.0062-.1579h-.0546l-6.3385 4.1164-1.1293.1457-.4857-.4554.0608-.7467.2307-.2429 1.9064-1.3114Z"/>
  </g>

  <!-- Codex (OpenAI) — actual logo path, white, bottom-right of screen -->
  <g transform="translate(546, 596) scale(3.67)" fill="#ffffff">
    <path d="M22.2819 9.8211a5.9847 5.9847 0 0 0-.5157-4.9108 6.0462 6.0462 0 0 0-6.5098-2.9A6.0651 6.0651 0 0 0 4.9807 4.1818a5.9847 5.9847 0 0 0-3.9977 2.9 6.0462 6.0462 0 0 0 .7427 7.0966 5.98 5.98 0 0 0 .511 4.9107 6.051 6.051 0 0 0 6.5146 2.9001A5.9847 5.9847 0 0 0 13.2599 24a6.0557 6.0557 0 0 0 5.7718-4.2058 5.9894 5.9894 0 0 0 3.9977-2.9001 6.0557 6.0557 0 0 0-.7475-7.073zM13.2599 22.4222a4.4774 4.4774 0 0 1-2.8764-1.0408l.1419-.0804 4.7783-2.7582a.7948.7948 0 0 0 .3927-.6813v-6.7369l2.02 1.1686a.071.071 0 0 1 .038.052v5.5826a4.504 4.504 0 0 1-4.4945 4.4944zM3.6075 18.18a4.4708 4.4708 0 0 1-.5346-3.011l.142.0852 4.783 2.7582a.7712.7712 0 0 0 .7806 0l5.8428-3.3685v2.3324a.0804.0804 0 0 1-.0332.0615L9.74 19.9502a4.4992 4.4992 0 0 1-6.1325-1.6702zM2.3408 7.8956a4.485 4.485 0 0 1 2.3655-1.9728V11.6a.7664.7664 0 0 0 .3879.6765l5.8144 3.3543-2.0201 1.1685a.0757.0757 0 0 1-.071 0l-4.8303-2.7865A4.504 4.504 0 0 1 2.3408 7.8956zm16.5963 3.8558L13.1038 8.364 15.1192 7.2a.0757.0757 0 0 1 .071 0l4.8303 2.7913a4.4944 4.4944 0 0 1-.6765 8.1042v-5.6772a.79.79 0 0 0-.4069-.6765zm2.0107-3.0231l-.142-.0852-4.7735-2.7818a.7759.7759 0 0 0-.7854 0L9.409 9.2297V6.8974a.0662.0662 0 0 1 .0284-.0615l4.8303-2.7866a4.4992 4.4992 0 0 1 6.6802 4.66zM8.3065 12.863l-2.02-1.1638a.0804.0804 0 0 1-.038-.0567V6.0742a4.4992 4.4992 0 0 1 7.3757-3.4537l-.142.0805L8.704 5.459a.7948.7948 0 0 0-.3927.6813zm1.0976-2.3654l2.602-1.4998 2.6069 1.4998v2.9994l-2.5974 1.4997-2.6067-1.4997Z"/>
  </g>
</svg>
